PathFileType	4	(X/Y/Z)	C:/Users/opensim2020/Desktop/walking_exp_matlab/subject02/subject02_trc/subject02_walking16_run_cyclic.trc																																																																																																																																																							
DataRate	CameraRate	NumFrames	NumMarkers	Units	OrigDataRate	OrigDataStartFrame	OrigNumFrames																																																																																																																																																			
100	100	7	51	mm	100	201	60																																																																																																																																																			
Frame#	Time	RTOE			LSHO			LELB			RELB			RFIN			LTHI			LKNE			RWRB			RUPA			LTIB			RASI			LANK			LTOE			RSHO			RWRA			RFRM			LASI			STRN			LFHD			RTHI			RFHD			LWRB			LFIN			LUPA			RKNE			RBHD			LFRM			C7			LWRA			RTIB			CLAV			LHEE			RANK			LBHD			RBAK			RHEE			T10			LPSI			RPSI			*39			*40			*41			*42			*43			*44			*45			*46			*47			*48			*49			*50		
		X1	Y1	Z1	X2	Y2	Z2	X3	Y3	Z3	X4	Y4	Z4	X5	Y5	Z5	X6	Y6	Z6	X7	Y7	Z7	X8	Y8	Z8	X9	Y9	Z9	X10	Y10	Z10	X11	Y11	Z11	X12	Y12	Z12	X13	Y13	Z13	X14	Y14	Z14	X15	Y15	Z15	X16	Y16	Z16	X17	Y17	Z17	X18	Y18	Z18	X19	Y19	Z19	X20	Y20	Z20	X21	Y21	Z21	X22	Y22	Z22	X23	Y23	Z23	X24	Y24	Z24	X25	Y25	Z25	X26	Y26	Z26	X27	Y27	Z27	X28	Y28	Z28	X29	Y29	Z29	X30	Y30	Z30	X31	Y31	Z31	X32	Y32	Z32	X33	Y33	Z33	X34	Y34	Z34	X35	Y35	Z35	X36	Y36	Z36	X37	Y37	Z37	X38	Y38	Z38	X39	Y39	Z39	X40	Y40	Z40	X41	Y41	Z41	X42	Y42	Z42	X43	Y43	Z43	X44	Y44	Z44	X45	Y45	Z45	X46	Y46	Z46	X47	Y47	Z47	X48	Y48	Z48	X49	Y49	Z49	X50	Y50	Z50	X51	Y51	Z51
																																																																																																																																																										
35	0.34	-0.77176	140.04448	152.3495	-332.79401	1496.08154	-158.37288	-131.0217	1249.97656	-228.28616	-657.26031	1378.03821	308.94006	-516.935	1120.89233	314.82806	-568.35559	691.83008	-148.36707	-674.71228	520.16736	-108.57084	-580.85211	1132.51514	307.00354	-558.14758	1470.43176	245.65137	-821.72302	391.54865	-100.01991	-347.34109	983.7226	129.26245	-933.46033	198.74847	-77.55103	-893.55524	38.75976	-55.5282	-410.17993	1521.30078	156.689	-542.62256	1161.98853	275.08087	-617.86987	1259.51563	314.49411	-375.91049	967.44843	-118.0807	-284.50037	1268.47522	24.56171	-286.53461	1738.83191	-55.53483	-333.78751	709.2168	216.0842	-296.00284	1720.66272	88.34947	-149.83044	1382.03503	-5.1539	-177.83203	1427.87988	37.18521	-225.99492	1353.21704	-233.04147	-235.14915	523.48663	187.76875	-427.23328	1627.02795	66.38104	-128.60112	1314.29675	-106.12846	-442.70673	1523.31494	-27.02902	-201.19173	1393.53308	-24.95377	-208.2998	335.95654	210.44789	-312.32141	1447.79199	5.31846	-956.36914	216.94167	-24.03078	-161.94653	143.31261	188.02711	-405.48969	1648.42358	-73.94025	-529.24567	1371.96008	27.35169	-185.37234	74.08781	141.05237	-535.13757	1267.52161	-11.09099	-559.81183	1047.85291	-20.48161	-557.11603	1056.21533	93.35725	NaN	NaN	NaN	2846.21924	1034.29333	-3356.94604	NaN	NaN	NaN	NaN	NaN	NaN	NaN	NaN	NaN	NaN	NaN	NaN	NaN	NaN	NaN	NaN	NaN	NaN	NaN	NaN	NaN	NaN	NaN	NaN	-403.13858	1790.53027	24.62409	NaN	NaN	NaN
36	0.35	56.7382	149.1346	149.98402	-293.94189	1499.70105	-152.64392	-91.98602	1257.58008	-236.93956	-623.97198	1377.81873	306.6741	-481.42084	1121.08398	318.92114	-529.79077	696.24359	-147.65054	-636.57727	525.6181	-107.32851	-545.08704	1132.27893	308.08319	-524.63123	1472.39526	245.44194	-788.22003	402.79691	-98.18632	-306.15247	986.53326	129.49223	-907.84772	214.8488	-76.66116	-876.922	50.63217	-59.37376	-376.15457	1523.70862	158.40398	-504.87354	1162.41858	278.53918	-583.6037	1259.57983	314.54709	-331.35727	972.53906	-116.20338	-245.44716	1272.73059	30.6052	-248.29767	1739.19824	-51.33843	-293.89975	709.9101	218.84567	-257.62457	1722.05872	92.64906	-109.70144	1372.32043	-3.55416	-137.49625	1414.17896	43.25803	-188.48347	1360.52661	-236.98465	-198.11551	520.80609	189.02367	-389.79654	1629.65967	71.53453	-89.06876	1313.2395	-110.34659	-404.96558	1525.61926	-24.06056	-161.0208	1385.22034	-22.04251	-162.78828	335.72824	209.58362	-275.24078	1451.15759	10.43424	-930.61139	233.52391	-23.40214	-105.49527	145.88487	185.13649	-368.26611	1650.08936	-68.92138	-490.50281	1373.67651	27.43449	-125.98745	77.78989	136.6143	-495.15973	1267.79272	-11.96577	-516.34442	1052.4895	-19.82736	-514.68365	1058.77515	94.41698	NaN	NaN	NaN	2846.17456	1034.13586	-3356.80664	NaN	NaN	NaN	NaN	NaN	NaN	NaN	NaN	NaN	NaN	NaN	NaN	NaN	NaN	NaN	NaN	NaN	NaN	NaN	NaN	NaN	NaN	NaN	NaN	-363.94705	1792.927	28.81719	NaN	NaN	NaN
37	0.36	105.32368	152.72429	152.43178	-255.60808	1503.00012	-147.36932	-55.56924	1262.55334	-245.52872	-589.88947	1374.43726	305.11414	-443.8924	1118.8429	323.15149	-489.9295	699.08685	-146.22104	-592.64795	526.40881	-106.81574	-507.06888	1129.87219	309.88351	-491.06638	1471.65125	244.69859	-750.33258	412.10483	-98.65444	-265.75198	988.41949	130.15205	-880.50195	231.39821	-73.55025	-857.5871	64.39188	-63.69217	-341.95346	1524.13184	160.53084	-466.34085	1160.79517	282.41562	-547.90558	1256.53259	315.00446	-287.47122	976.3609	-113.46558	-206.68214	1275.96045	36.34172	-210.17888	1739.03064	-47.24197	-252.97391	709.07446	222.43732	-219.53894	1722.74365	96.32642	-67.32319	1356.30066	-1.79313	-93.27515	1393.65088	49.70375	-152.44249	1366.20825	-241.56244	-160.35669	517.9873	189.66245	-352.35309	1631.15308	76.52711	-49.8268	1307.02625	-114.27943	-367.36832	1526.31067	-20.7693	-118.30695	1372.12207	-17.83537	-120.53477	335.27463	207.41423	-237.6252	1453.21313	15.42143	-902.61292	250.2233	-19.71502	-58.36578	147.1006	181.38953	-331.02161	1650.74146	-64.05498	-452.09769	1374.20569	28.39987	-75.42604	79.82684	130.03885	-455.56317	1267.38135	-11.91752	-473.32816	1056.47949	-19.84825	-472.77591	1060.83228	95.43874	NaN	NaN	NaN	2846.08789	1034.3457	-3356.78589	NaN	NaN	NaN	NaN	NaN	NaN	NaN	NaN	NaN	NaN	NaN	NaN	NaN	NaN	NaN	NaN	NaN	NaN	NaN	NaN	NaN	NaN	NaN	NaN	-324.95248	1794.06311	32.8854	NaN	NaN	NaN
38	0.37	143.90761	152.48666	156.56239	-217.5804	1505.71558	-142.73856	-21.3686	1265.00781	-253.85916	-554.92523	1368.20251	304.13751	-404.04337	1114.44165	327.0022	-445.9989	698.93414	-144.1356	-545.78296	524.07819	-106.29613	-467.02969	1125.31873	312.08862	-457.19492	1468.23914	244.09363	-709.63281	418.86789	-99.28236	-225.38837	989.57697	131.53191	-850.16028	248.26651	-69.46821	-836.14966	80.90671	-67.08158	-307.03302	1522.47546	163.57796	-425.96188	1156.78101	285.62433	-510.79434	1251.09851	315.5448	-244.14211	978.57306	-109.87557	-169.82069	1277.60474	39.78849	-172.25775	1738.43555	-43.12671	-211.12106	706.97491	227.23958	-181.42514	1722.8064	100.79309	-23.31107	1334.51636	-1.16824	-46.36651	1366.67505	55.2879	-117.8468	1370.21777	-245.86942	-120.66528	516.30579	189.35605	-314.66138	1631.66748	81.35337	-10.52568	1295.73645	-118.65086	-329.8844	1525.57983	-17.02064	-74.03146	1354.43994	-14.09709	-81.66228	334.0043	204.3243	-199.45732	1453.90991	20.46273	-870.71124	266.48804	-13.73991	-20.84514	145.73778	176.21852	-293.64117	1650.63977	-59.53965	-414.49344	1373.38696	29.83348	-35.57627	79.29913	122.61571	-416.32877	1266.60437	-11.1858	-431.09601	1059.11292	-20.48981	-431.71344	1062.4613	96.33743	NaN	NaN	NaN	2846.06812	1034.43225	-3356.85498	NaN	NaN	NaN	NaN	NaN	NaN	NaN	NaN	NaN	NaN	NaN	NaN	NaN	NaN	NaN	NaN	NaN	NaN	NaN	NaN	NaN	NaN	NaN	NaN	-286.63324	1794.39832	36.96897	NaN	NaN	NaN
39	0.38	173.20515	145.96054	160.32164	-179.97633	1507.27747	-138.79817	10.93167	1265.17505	-262.12308	-518.70831	1359.41626	304.06339	-362.18005	1108.4375	330.62064	-396.37073	695.17285	-142.16626	-496.43027	519.43524	-105.64697	-425.1402	1118.48108	314.42056	-422.38531	1461.67017	244.05922	-666.22565	423.14322	-98.58175	-186.72903	989.38269	133.17055	-816.24585	264.78796	-64.77173	-812.53607	98.6763	-70.40292	-270.98969	1519.28064	168.12769	-384.47403	1150.93481	289.17346	-472.19049	1243.08411	316.88959	-200.9444	978.9538	-105.78886	-131.58789	1278.05847	44.3403	-134.53484	1737.43274	-39.06186	-168.99231	703.5166	232.74477	-143.56815	1722.27637	104.99149	21.57882	1307.39807	-2.93147	2.42583	1333.66028	57.95153	-84.69608	1373.10669	-250.41833	-79.12567	515.82141	188.3756	-276.89172	1631.03528	86.00902	28.36862	1280.08301	-124.38392	-292.36612	1523.74561	-12.70078	-27.99777	1331.59204	-11.39411	-46.5919	331.68649	200.75351	-161.29146	1453.56323	25.05272	-835.00854	283.17764	-7.71189	8.16191	142.19511	170.30533	-255.99348	1649.60779	-54.97677	-376.63544	1371.78967	31.7498	-6.37316	77.13996	114.15443	-377.41153	1265.36975	-9.98866	-389.44247	1060.34753	-21.47056	-391.61972	1063.46082	96.90985	NaN	NaN	NaN	2845.98047	1034.59863	-3356.88159	NaN	NaN	NaN	NaN	NaN	NaN	NaN	NaN	NaN	NaN	NaN	NaN	NaN	NaN	NaN	NaN	NaN	NaN	NaN	NaN	NaN	NaN	NaN	NaN	-248.89923	1793.64526	41.04939	NaN	NaN	NaN
40	0.39	194.42813	133.47255	162.19563	-142.48679	1507.66003	-135.45413	41.76363	1263.63904	-270.61072	-481.17581	1347.96826	304.371	-318.60553	1101.0752	334.15314	-345.09515	688.49133	-140.24757	-444.48309	512.75537	-105.05891	-381.42169	1109.51904	316.7514	-386.34186	1452.08679	245.44719	-619.21313	425.72772	-96.66274	-147.65099	988.46674	135.98788	-778.57721	281.04221	-60.12214	-786.39368	116.50509	-73.05148	-234.20117	1514.68359	173.58362	-340.97861	1142.79114	291.89413	-431.79187	1232.71692	318.22809	-157.69276	978.08685	-101.72114	-93.30114	1277.54138	48.87127	-97.36595	1735.63538	-34.83974	-127.63908	698.48145	238.22505	-105.8998	1721.0697	109.21317	66.53304	1276.22778	-8.46262	51.63702	1295.73291	56.1703	-52.91193	1374.94617	-254.08638	-37.04075	514.96777	187.41577	-238.94212	1629.34399	90.53164	66.41238	1261.04492	-132.32718	-254.7188	1521.11377	-7.83625	18.14527	1304.06714	-11.39403	-15.0039	328.40659	196.95911	-123.07168	1452.24561	29.62188	-795.05096	299.50598	-1.5286	29.91003	137.0426	163.77454	-218.14964	1647.50427	-50.31981	-339.1871	1368.81946	33.85602	13.88464	73.87933	106.13099	-338.76276	1263.58081	-8.31887	-348.24271	1060.43042	-22.23969	-352.26401	1063.38098	96.98366	NaN	NaN	NaN	2846.60693	1034.34326	-3355.36011	NaN	NaN	NaN	NaN	NaN	NaN	NaN	NaN	NaN	NaN	NaN	NaN	NaN	NaN	NaN	NaN	NaN	NaN	NaN	NaN	NaN	NaN	NaN	NaN	-211.6774	1791.85596	45.11203	NaN	NaN	NaN
41	0.4	208.57225	118.38275	160.11855	-105.10659	1506.77991	-132.39299	71.38849	1261.24707	-279.14264	-442.18283	1334.0271	305.35602	-272.84518	1092.11475	337.10162	-293.3978	679.83252	-138.46791	-389.91602	504.86163	-104.44926	-335.66052	1098.57996	319.11508	-349.34775	1439.67053	247.86571	-568.70435	429.10229	-94.63981	-108.61905	986.90784	139.44429	-736.69806	296.40329	-55.75321	-756.68909	134.36697	-74.34111	-197.05836	1508.87097	179.55933	-296.02289	1132.93335	294.53833	-389.6351	1220.19312	319.7854	-114.26894	976.28186	-97.87333	-55.0522	1275.35706	51.50785	-59.83035	1733.40747	-30.81868	-86.24704	692.50616	241.07834	-68.33849	1719.10107	113.27436	110.90318	1242.07446	-18.28739	100.45786	1253.95349	49.0248	-21.68205	1375.62659	-257.24881	5.32402	512.91339	186.33882	-200.91966	1626.66895	95.11048	103.31354	1240.35657	-142.92085	-216.79289	1517.98462	-2.53264	63.83216	1272.42627	-14.9461	13.19121	324.32904	192.96529	-84.94154	1450.16174	34.00237	-750.93658	314.67221	3.90746	45.50711	131.25587	157.00215	-180.33452	1644.45728	-45.84484	-301.39319	1365.43066	36.49313	27.5339	69.50334	97.44517	-300.24741	1261.12939	-6.3343	-307.38489	1059.48364	-22.56788	-313.05557	1061.65369	96.59578	NaN	NaN	NaN	NaN	NaN	NaN	NaN	NaN	NaN	NaN	NaN	NaN	NaN	NaN	NaN	NaN	NaN	NaN	NaN	NaN	NaN	NaN	NaN	NaN	NaN	NaN	NaN	NaN	NaN	NaN	-174.60387	1789.07434	49.03836	NaN	NaN	NaN
